# xmcd CD database file
#
# Track frame offsets:
#	150
#	15237
#	31565
#	56439
#	92834
#	125837
#	152615
#	198691
#	226649
#	247422
#	282132
#
# Disc length: 4264 seconds
#
# Revision: 6
# Processed by: cddbd v1.5.2PL0 Copyright (c) Steve Scherf et al.
# Submitted via: CDex 1.70beta2
#
DISCID=8810a60b
DTITLE=Bonamassa, Joe - A New Day Yesterday Live
DYEAR=2001
DGENRE=Blues
TTITLE0=Jam Intro
TTITLE1=Cradle Rock
TTITLE2=Steppin' Out/Rice Pudding
TTITLE3=A New Day Yesterday
TTITLE4=Miss You, Hate You
TTITLE5=Walk In My Shadows
TTITLE6=I Know Where I Belong
TTITLE7=Colour and Shape
TTITLE8=Trouble Waiting
TTITLE9=If Heartaches Were Nickels
TTITLE10=Don't Burn That Bridge
EXTD=YEAR: 2001
EXTT0=
EXTT1=
EXTT2=
EXTT3=
EXTT4=
EXTT5=
EXTT6=
EXTT7=
EXTT8=
EXTT9=
EXTT10=
PLAYORDER=
